<?xml version="1.0" standalone="no"?>
<!DOCTYPE svg PUBLIC "-//W3C//DTD SVG 20010904//EN"
 "http://www.w3.org/TR/2001/REC-SVG-20010904/DTD/svg10.dtd">
<svg version="1.0" xmlns="http://www.w3.org/2000/svg"
 width="800.000000pt" height="800.000000pt" viewBox="0 0 800.000000 800.000000"
 preserveAspectRatio="xMidYMid meet">
<metadata>
Created by potrace 1.11, written by Peter Selinger 2001-2013
</metadata>
<g transform="translate(0.000000,800.000000) scale(0.100000,-0.100000)"
fill="#000000" stroke="none">
<path d="M953 6190 c-137 -37 -253 -125 -309 -232 -51 -100 -63 -246 -29 -365
15 -54 89 -265 120 -343 8 -19 38 -102 68 -185 187 -513 219 -602 224 -615 4
-8 7 -17 8 -20 1 -3 4 -12 8 -20 3 -8 60 -166 127 -350 67 -184 125 -344 130
-355 5 -11 21 -54 36 -95 34 -96 39 -111 373 -1023 154 -422 290 -786 300
-808 89 -183 307 -301 541 -293 163 5 295 60 400 164 38 38 76 88 92 120 21
45 200 530 478 1300 197 544 241 667 247 680 3 8 7 20 9 25 4 16 211 583 240
659 l27 68 169 -478 c93 -264 232 -657 309 -874 77 -217 153 -431 169 -475 16
-44 92 -260 170 -480 78 -220 155 -424 173 -454 69 -115 216 -214 362 -244 39
-8 108 -13 155 -12 259 8 453 142 537 369 27 74 82 225 117 319 18 50 113 310
211 577 98 267 184 501 191 520 7 19 65 179 129 355 65 176 126 343 136 371
44 123 352 964 369 1009 10 28 31 84 46 125 15 41 42 118 62 170 112 307 117
326 117 460 0 76 -5 109 -25 163 -61 172 -251 289 -456 283 -91 -3 -148 -17
-220 -52 -108 -54 -196 -157 -242 -284 -29 -80 -130 -366 -142 -400 -17 -51
-130 -369 -169 -480 -23 -63 -44 -122 -46 -130 -1 -8 -15 -46 -30 -85 -15 -38
-28 -77 -30 -85 -2 -8 -18 -53 -35 -100 -17 -47 -37 -103 -44 -125 -12 -37
-248 -706 -386 -1095 -32 -91 -74 -210 -93 -264 -25 -75 -36 -94 -41 -80 -8
20 -208 601 -256 744 -16 47 -79 231 -140 410 -152 443 -247 721 -275 805
-240 712 -314 920 -347 977 -109 185 -341 279 -553 223 -80 -21 -180 -81 -240
-143 -74 -77 -75 -80 -309 -732 -65 -179 -121 -333 -127 -342 -5 -10 -9 -22
-9 -27 0 -5 -5 -22 -12 -38 -6 -15 -12 -32 -14 -38 -2 -10 -91 -251 -124 -340
-11 -27 -76 -207 -145 -400 -69 -192 -138 -384 -154 -425 -16 -41 -45 -122
-66 -180 -20 -58 -41 -114 -45 -125 -5 -11 -23 -60 -40 -110 -18 -49 -44 -121
-58 -158 l-26 -69 -27 79 c-31 90 -87 250 -189 543 -39 113 -83 239 -96 280
-14 41 -29 84 -34 95 -5 11 -32 88 -60 170 -66 191 -144 417 -180 520 -16 44
-65 186 -110 315 -45 129 -96 278 -115 330 -18 52 -63 183 -100 290 -77 226
-87 249 -129 310 -65 95 -167 167 -286 201 -67 19 -216 18 -287 -1z"/>
</g>
</svg>
